<svg width="24" height="24" viewBox="0 0 24 24" fill="none" xmlns="http://www.w3.org/2000/svg">
<path d="M4 0C2.93913 0 1.92172 0.421428 1.17157 1.17157C0.421428 1.92172 0 2.93913 0 4V20C0 21.0609 0.421428 22.0783 1.17157 22.8284C1.92172 23.5786 2.93913 24 4 24H10.6667C11.0203 24 11.3594 23.8595 11.6095 23.6095C11.8595 23.3594 12 23.0203 12 22.6667C12 22.313 11.8595 21.9739 11.6095 21.7239C11.3594 21.4738 11.0203 21.3333 10.6667 21.3333H4C3.64638 21.3333 3.30724 21.1929 3.05719 20.9428C2.80714 20.6928 2.66667 20.3536 2.66667 20V4C2.66667 3.64638 2.80714 3.30724 3.05719 3.05719C3.30724 2.80714 3.64638 2.66667 4 2.66667H10.6667C11.0203 2.66667 11.3594 2.52619 11.6095 2.27614C11.8595 2.02609 12 1.68696 12 1.33333C12 0.979711 11.8595 0.640573 11.6095 0.390524C11.3594 0.140476 11.0203 0 10.6667 0H4Z" fill="white"/>
<path d="M15.6094 5.724C15.3594 5.47404 15.0203 5.33362 14.6667 5.33362C14.3132 5.33362 13.9741 5.47404 13.7241 5.724L8.39075 11.0573C8.14079 11.3074 8.00037 11.6464 8.00037 12C8.00037 12.3536 8.14079 12.6926 8.39075 12.9427L13.7241 18.276C13.9756 18.5189 14.3124 18.6533 14.6619 18.6502C15.0115 18.6472 15.346 18.507 15.5932 18.2598C15.8404 18.0125 15.9806 17.6781 15.9836 17.3285C15.9867 16.9789 15.8523 16.6421 15.6094 16.3907L12.5521 13.3333H22.6667C23.0204 13.3333 23.3595 13.1929 23.6096 12.9428C23.8596 12.6928 24.0001 12.3536 24.0001 12C24.0001 11.6464 23.8596 11.3072 23.6096 11.0572C23.3595 10.8071 23.0204 10.6667 22.6667 10.6667H12.5521L15.6094 7.60933C15.8594 7.3593 15.9998 7.02022 15.9998 6.66667C15.9998 6.31311 15.8594 5.97404 15.6094 5.724V5.724Z" fill="white"/>
</svg>
