<svg xmlns="http://www.w3.org/2000/svg" width="24" height="24" fill="none" viewBox="0 0 24 24"><path fill="#555" fill-rule="evenodd" d="M11.5559 2.34508C11.5556 2.34523 11.5553 2.34538 11.555 2.34553L3.5572 6.34442L3.55499 6.34553C3.38838 6.42832 3.24817 6.55594 3.15013 6.71405C3.05211 6.87211 3.00012 7.05436 2.99999 7.24034C2.99999 7.24027 2.99999 7.2404 2.99999 7.24034V16.767C2.99869 16.9533 3.04948 17.1363 3.14666 17.2954C3.24368 17.4541 3.38307 17.5827 3.54914 17.6665C3.54887 17.6664 3.54942 17.6667 3.54914 17.6665L11.5472 21.6656C11.6861 21.7351 11.8396 21.7714 11.995 21.7714C12.1503 21.7714 12.3036 21.7352 12.4425 21.6657L20.4428 17.6656L20.445 17.6645C20.6116 17.5817 20.7518 17.4541 20.8498 17.2959C20.9479 17.1378 20.9999 16.9555 21 16.7695V7.24053C20.9999 7.05449 20.9479 6.87216 20.8498 6.71405C20.7518 6.55594 20.6116 6.42832 20.445 6.34553L20.4428 6.34442L12.445 2.34553C12.4447 2.34538 12.4444 2.34523 12.4441 2.34508C12.306 2.27666 12.1541 2.24106 12 2.24106C11.8459 2.24106 11.6939 2.27666 11.5559 2.34508ZM12.89 1.45L13.335 0.554467C12.9202 0.34833 12.4632 0.241058 12 0.241058C11.5368 0.241058 11.0798 0.34833 10.665 0.554467L10.6628 0.55557L2.66499 4.55447C2.66458 4.55467 2.66416 4.55487 2.66375 4.55508C2.16448 4.80346 1.7443 5.18609 1.45041 5.66003C1.15627 6.13436 1.00028 6.68134 0.999988 7.23947L0.999987 16.7569C0.996817 17.3146 1.14921 17.8623 1.44009 18.3383C1.73164 18.8153 2.15071 19.2015 2.65001 19.453L2.65277 19.4544L10.6525 23.4543C11.0693 23.6628 11.5289 23.7714 11.995 23.7714C12.4609 23.7714 12.9205 23.6629 13.3372 23.4544C13.3373 23.4544 13.3371 23.4545 13.3372 23.4544L21.335 19.4555C21.3353 19.4554 21.3357 19.4552 21.336 19.455C21.8354 19.2067 22.2556 18.824 22.5496 18.35C22.8437 17.8756 22.9997 17.3287 23 16.7705V7.24C22.9997 6.68187 22.8437 6.13436 22.5496 5.66003C22.2557 5.18611 21.8355 4.80349 21.3363 4.5551C21.3358 4.55489 21.3354 4.55468 21.335 4.55447L13.3372 0.55557L12.89 1.45Z" clip-rule="evenodd"/><path fill="#555" fill-rule="evenodd" d="M1.42556 5.71278C1.67255 5.21881 2.27322 5.01858 2.7672 5.26557L12 9.88196L21.2328 5.26557C21.7268 5.01858 22.3274 5.21881 22.5744 5.71278C22.8214 6.20676 22.6212 6.80744 22.1272 7.05442L12.4472 11.8944C12.1657 12.0352 11.8343 12.0352 11.5528 11.8944L1.87277 7.05442C1.3788 6.80744 1.17857 6.20676 1.42556 5.71278Z" clip-rule="evenodd"/><path fill="#555" fill-rule="evenodd" d="M12 10C12.5523 10 13 10.4477 13 11V22.76C13 23.3123 12.5523 23.76 12 23.76C11.4477 23.76 11 23.3123 11 22.76V11C11 10.4477 11.4477 10 12 10Z" clip-rule="evenodd"/><path fill="#555" fill-rule="evenodd" d="M6.10556 3.05278C6.35255 2.5588 6.95322 2.35858 7.4472 2.60557L17.4472 7.60557C17.9412 7.85256 18.1414 8.45323 17.8944 8.94721C17.6474 9.44119 17.0468 9.64141 16.5528 9.39442L6.55277 4.39442C6.0588 4.14744 5.85857 3.54676 6.10556 3.05278Z" clip-rule="evenodd"/></svg>