<svg xmlns="http://www.w3.org/2000/svg" width="24" height="25" fill="none" viewBox="0 0 24 25"><path fill="#555" fill-rule="evenodd" d="M12 3.5C7.02944 3.5 3 7.52944 3 12.5C3 17.4706 7.02944 21.5 12 21.5C16.9706 21.5 21 17.4706 21 12.5C21 7.52944 16.9706 3.5 12 3.5ZM1 12.5C1 6.42487 5.92487 1.5 12 1.5C18.0751 1.5 23 6.42487 23 12.5C23 18.5751 18.0751 23.5 12 23.5C5.92487 23.5 1 18.5751 1 12.5Z" clip-rule="evenodd"/><path fill="#555" fill-rule="evenodd" d="M12 7.5C12.5523 7.5 13 7.94772 13 8.5V16.5C13 17.0523 12.5523 17.5 12 17.5C11.4477 17.5 11 17.0523 11 16.5V8.5C11 7.94772 11.4477 7.5 12 7.5Z" clip-rule="evenodd"/><path fill="#555" fill-rule="evenodd" d="M7 12.5C7 11.9477 7.44772 11.5 8 11.5H16C16.5523 11.5 17 11.9477 17 12.5C17 13.0523 16.5523 13.5 16 13.5H8C7.44772 13.5 7 13.0523 7 12.5Z" clip-rule="evenodd"/></svg>