<svg xmlns="http://www.w3.org/2000/svg" xmlns:xlink="http://www.w3.org/1999/xlink" version="1.1" x="0px" y="0px" viewBox="0 0 69 86.25" style="enable-background:new 0 0 69 69;" xml:space="preserve"><g><g><g><path d="M45.20746,43.64526c-1.23358,0-2.23053,0.99707-2.23053,2.23071c0,1.2334,0.99695,2.23889,2.23053,2.23889     c1.23352,0,2.23895-1.00549,2.23895-2.23889C47.44641,44.64233,46.44098,43.64526,45.20746,43.64526z"/><path d="M60.79761,31.15357h-2.09229v-4.89063c0.00006-0.00342,0.00195-0.00635,0.00195-0.00977v-6.23071l2.56104-2.64819     c0.38379-0.39746,0.37354-1.03027-0.02344-1.41406L47.61743,2.7815c-0.39746-0.38379-1.03027-0.375-1.41406,0.02344     l-8.7287,9.02588l0.75458-4.95654c0.08301-0.5459-0.29248-1.05566-0.83838-1.13867l-18.7417-2.85352     c-0.25977-0.04004-0.5293,0.02539-0.74316,0.18262c-0.21338,0.15723-0.35596,0.39258-0.396,0.65527l-1.93817,12.73047H9.91187     c-2.67155,0-5.5667,2.17308-5.58411,5.35181c-0.00122,0.02002-0.0116,0.03711-0.0116,0.05737v41.72949     c0,1.60547,1.30615,2.91113,2.91162,2.91113H55.7937c1.60547,0,2.91162-1.30566,2.91162-2.91113v-11.2168h2.03711     c2.17334,0,3.94141-1.74316,3.94141-3.88574V37.48462v-2.44531C64.68384,32.89673,62.94067,31.15357,60.79761,31.15357z      M60.79761,33.15356c1.04004,0,1.88623,0.8457,1.88623,1.88574v2.44531c0,1.03516-0.84619,1.87695-1.88623,1.87695     c-0.13388,0-2.19497,0-2.09229,0v-6.20801H60.79761z M29.68213,19.88855l-5.18805,5.36462h-3.77106l1.74792-11.48145     c0.86621-0.26172,1.60645-0.98145,2.0249-1.74219l4.51709,0.6875c0.17178,0.8447,0.66992,1.76529,1.41553,2.26855     L29.68213,19.88855z M50.33618,19.39478l-5.66559,5.8584H33.47156L44.5481,13.80005     c0.44775,0.15234,0.96533,0.18848,1.52002,0.10352c0.40479-0.06152,0.79639-0.18457,1.14258-0.35156l3.28418,3.17578     C50.14331,17.52173,50.01929,18.54712,50.33618,19.39478z M56.70728,25.25318h-3.05841l3.05841-3.1626V25.25318z      M46.94556,4.91431L59.1355,16.70239l-8.26917,8.55078h-3.41327l4.85431-5.01953     c0.18457-0.19043,0.28564-0.44727,0.28125-0.71191c-0.00439-0.26563-0.11426-0.51758-0.30469-0.70215     c-0.26367-0.25488-0.09033-1.25195,0.20361-1.55566c0.3833-0.39746,0.37305-1.03027-0.02393-1.41406l-4.44189-4.2959     c-0.19043-0.18457-0.41406-0.28809-0.7124-0.28125c-0.26514,0.00488-0.51758,0.11426-0.70215,0.30469     c-0.10352,0.10742-0.43359,0.28711-0.84229,0.34961c-0.36182,0.05469-0.61475-0.00684-0.70508-0.09375     c-0.19043-0.18457-0.43555-0.27832-0.71191-0.28125c-0.26514,0.00488-0.51758,0.11426-0.70215,0.30469L30.68958,25.25318     h-3.41302L46.94556,4.91431z M19.33667,5.00903l16.76465,2.55273l-1.02789,6.75195l-2.99011,3.0918l0.43842-2.87988     c0.08301-0.5459-0.29199-1.05566-0.83789-1.13867c-0.37602-0.05945-0.79661-0.98133-0.73486-1.38672     c0.04004-0.26172-0.02588-0.5293-0.18311-0.74316s-0.39307-0.35547-0.65527-0.39551l-6.10889-0.92969     c-0.53906-0.08594-1.05566,0.29102-1.13916,0.83789c-0.06348,0.41699-0.74805,1.16504-1.11475,1.10449     c-0.53711-0.08301-1.05469,0.29102-1.13867,0.83789l-1.90942,12.54102h-2.44495L19.33667,5.00903z M9.91187,18.45044h5.35547     l-1.03571,6.80273H9.72339c-1.75242,0-3.34391-1.42415-3.39758-3.29517C6.26406,19.89595,8.20548,18.45044,9.91187,18.45044z      M56.70532,63.58911c0,0.50195-0.40918,0.91113-0.91162,0.91113H7.22778c-0.50244,0-0.91162-0.40918-0.91162-0.91113V26.04419     c0.85821,0.69965,2.14761,1.21191,3.40771,1.21191h46.98145v12.13281h-3.91797v-7.21777c0-0.55273-0.44775-1-1-1H11.23169     c-0.55225,0-1,0.44727-1,1v27.41797c0,0.55273,0.44775,1,1,1h40.55566c0.55225,0,1-0.44727,1-1v-7.2168h3.91797V63.58911z      M43.49976,52.37231h7.2876v6.2168H12.23169V33.17114h38.55566v6.21777h-7.2876c-3.07031,0-5.56836,2.46094-5.56836,5.48535     v2.0127C37.9314,49.91138,40.42944,52.37231,43.49976,52.37231z M62.68384,48.48657c0,1.04004-0.87109,1.88574-1.94141,1.88574     H43.49976c-1.96777,0-3.56836-1.56348-3.56836-3.48535v-2.0127c0-1.92188,1.60059-3.48535,3.56836-3.48535h17.0498     c0.88979,0,1.61482-0.2263,2.13428-0.51563V48.48657z"/></g></g></g><text x="0" y="84" fill="#000000" font-size="5px" font-weight="bold" font-family="'Helvetica Neue', Helvetica, Arial-Unicode, Arial, Sans-serif">Created by Vectors Point</text><text x="0" y="89" fill="#000000" font-size="5px" font-weight="bold" font-family="'Helvetica Neue', Helvetica, Arial-Unicode, Arial, Sans-serif">from the Noun Project</text></svg>