<?xml version="1.0" standalone="no"?>
<!DOCTYPE svg PUBLIC "-//W3C//DTD SVG 20010904//EN"
 "http://www.w3.org/TR/2001/REC-SVG-20010904/DTD/svg10.dtd">
<svg version="1.0" xmlns="http://www.w3.org/2000/svg"
 width="700.000000pt" height="700.000000pt" viewBox="0 0 700.000000 700.000000"
 preserveAspectRatio="xMidYMid meet">
<metadata>
Created by potrace 1.11, written by Peter Selinger 2001-2013
</metadata>
<g transform="translate(0.000000,700.000000) scale(0.100000,-0.100000)"
fill="#000000" stroke="none">
<path d="M779 6996 c-2 -2 -26 -7 -53 -10 -123 -17 -289 -92 -391 -176 -165
-137 -275 -316 -316 -514 -18 -88 -19 -192 -18 -2786 0 -1505 4 -2719 9 -2750
19 -120 35 -170 79 -259 42 -84 63 -116 122 -185 111 -129 245 -220 399 -273
126 -43 57 -42 2900 -42 1814 0 2720 3 2750 10 139 31 205 56 295 108 223 128
391 364 432 606 4 28 8 1285 8 2795 l0 2745 -23 80 c-63 216 -188 388 -372
512 -71 47 -198 103 -274 119 -11 3 -34 8 -51 12 -31 7 -5488 15 -5496 8z"/>
</g>
</svg>
